<?xml version="1.0" encoding="UTF-8"?><svg id="Layer_1" xmlns="http://www.w3.org/2000/svg" viewBox="0 0 394.38 292.06"><defs><style>.cls-1{fill:#001e5f;}</style></defs><path class="cls-1" d="M.23,290.33c-.32-.16-.28-4.39,0-4.39h.2c2.09,2.53,4.79,4.51,7.97,4.55,3.9.04,6.68-1.33,6.68-5.59,0-3.74-3.46-5.39-7.04-7.2-3.74-2.09-7.6-4.22-7.6-9.05s3.74-7.81,9.09-7.81c3.3,0,5.07.4,6.88,1.17.36.16.28,4.1.08,4.1h-.2c-1.33-1.89-3.22-3.78-6.8-3.78-2.37,0-5.75.97-5.75,4.43s3.3,5.03,7.2,7.16c3.98,2.17,7.85,4.31,7.85,9.29,0,5.59-4.1,8.81-10.34,8.81-2.78,0-6.36-.68-8.21-1.69Z"/><path class="cls-1" d="M20.13,290.73c.85-.12,1.41-.2,2.05-.32.04-1.29.04-2.49.04-4.19v-8.89c0-1.73-.04-3.38-.08-5.15-.81-.28-1.33-.36-2.09-.56-.04,0-.08-.68.04-.68,2.61-.64,3.78-.97,5.83-1.53.04,0,.36.2.36.28-.04,1.01-.04,2.09-.08,3.3v17.46c.68.12,1.33.2,2.17.28.12,0,0,.8-.04.8h-8.29c-.08,0,0-.8.08-.8ZM21.82,264.01c0-1.29,1.05-2.33,2.33-2.33s2.37,1.05,2.37,2.33-1.05,2.33-2.37,2.33-2.33-1.05-2.33-2.33Z"/><path class="cls-1" d="M30.31,290.73c.85-.12,1.41-.2,2.05-.32.04-1.29.04-2.49.04-4.19v-8.89c0-1.73-.04-3.38-.08-5.15-.81-.28-1.33-.36-2.09-.56-.04,0-.08-.68.04-.68,2.74-.68,3.34-.88,5.71-1.53.04,0,.36.2.36.28l-.04,3.18h.12c2.01-1.97,5.11-3.3,7.93-3.3s4.47.93,5.15,3.3h.08c2.01-1.97,5.27-3.3,8.09-3.3,3.62,0,5.47,1.57,5.47,6.04v14.85c.68.12,1.25.2,2.09.28.08,0,0,.8-.08.8h-8.21c-.12,0-.04-.8.08-.8.85-.12,1.37-.2,2.01-.32.04-1.37.04-2.49.04-4.19v-9.58c0-3.18-.76-4.67-3.7-4.67-2.29,0-4.43.81-5.67,2.09.08.44.08.97.08,1.53v14.85c.68.12,1.25.2,2.09.28.08,0,0,.8-.08.8h-8.21c-.08,0,0-.8.08-.8.85-.12,1.41-.2,2.01-.32.08-1.37.08-2.49.08-4.19v-9.58c0-3.18-.76-4.67-3.74-4.67-2.25,0-4.27.81-5.55,2.01v16.46c.64.12,1.21.2,2.05.28.12,0,0,.8-.04.8h-8.25c-.08,0,0-.8.08-.8Z"/><path class="cls-1" d="M66.45,280.95c0-7.2,4.67-11.43,10.42-11.43s10.58,3.94,10.58,11.14-4.63,11.39-10.38,11.39-10.62-3.94-10.62-11.1ZM83.19,280.91c0-7.73-2.53-10.18-6.32-10.18-3.58,0-6.12,2.61-6.12,9.98,0,7.73,2.54,10.22,6.32,10.22,3.58,0,6.12-2.7,6.12-10.02Z"/><path class="cls-1" d="M88.83,290.73c.85-.12,1.41-.2,2.05-.32.04-1.29.08-2.49.08-4.19v-8.89c0-1.73-.08-3.38-.12-5.15-.76-.28-1.29-.36-2.09-.56-.04,0-.04-.68.04-.68,2.74-.68,3.34-.88,5.71-1.53.08,0,.36.2.36.28l-.04,3.18h.12c2.01-1.97,5.43-3.3,8.25-3.3,3.58,0,5.67,1.57,5.67,6.04v14.85c.68.12,1.29.2,2.09.28.12,0,0,.8-.08.8h-8.25c-.08,0,0-.8.08-.8.85-.12,1.41-.2,2.05-.32.04-1.37.04-2.49.04-4.19v-9.58c0-3.18-.88-4.71-3.9-4.71-2.25,0-4.59.85-5.92,2.05v16.46c.68.12,1.25.2,2.13.28.08,0,0,.8-.08.8h-8.29c-.08,0,0-.8.08-.8Z"/><path class="cls-1" d="M130.35,261.36c6.07,0,9.86,2.58,9.86,6.84,0,3.3-2.42,6.24-6.76,7.24v.24c4.31.52,8.93,2.46,8.93,7.49,0,3.02-1.61,5.51-4.63,7-1.69.85-3.94,1.37-6.48,1.37h-11.06c-.08,0,0-.93.08-.97.97-.12,1.81-.2,2.66-.32.08-1.57.12-4.67.12-6.4v-21.28c-1.05-.08-1.77-.16-2.74-.28-.08,0-.04-.93.04-.93h9.98ZM129.67,275.08c1.57,0,2.9-.4,3.94-1.13,1.61-1.13,2.49-2.82,2.49-5.07,0-4.79-2.82-6.36-7.24-6.36h-1.41v12.55h2.21ZM131.04,290.29c4.67,0,6.96-2.7,6.96-6.88,0-6.04-4.79-6.96-10.54-6.92v13.8h3.58Z"/><path class="cls-1" d="M163.49,289.72c1.37.24,1.45.28,2.7.48.08.04.08.76-.04.8-2.53.36-3.66.44-6.24.97-.08,0-.32-.2-.32-.28v-3.06h-.2c-1.45,2.01-4.67,3.42-6.88,3.42-3.9,0-6.6-2.17-6.6-6.36v-10.14c0-1.45-.04-3.02-.04-4.47-.64-.12-1.25-.16-2.09-.28-.12,0-.04-.81.08-.81h6.16v14.41c0,3.58,1.13,5.19,4.43,5.19,2.41,0,3.98-1.09,4.91-2.13v-11.67c0-1.53-.04-3.18-.04-4.71-.64-.08-1.29-.16-2.13-.28-.12,0-.04-.81.04-.81h6.24v14.69c0,1.77,0,3.38.04,5.03Z"/><path class="cls-1" d="M167.95,290.69c-.2-.12-.04-3.5.08-3.5h.24c1.77,2.05,3.42,3.54,6.28,3.54,2.65,0,4.26-.81,4.26-3.5,0-2.49-2.05-3.38-5.67-5.07-2.41-1.17-4.95-2.78-4.95-6.4,0-4.22,3.62-6.24,7.2-6.24,2.49,0,4.47.44,5.67,1.17.12.12.08,3.26,0,3.26h-.2c-1.25-1.97-2.98-3.06-5.55-3.06-2.21,0-3.9,1.17-3.9,3.26,0,2.54,1.53,3.14,4.39,4.55,3.18,1.57,6.48,3.14,6.48,6.68,0,4.79-3.94,6.68-7.73,6.68-2.82,0-4.99-.52-6.6-1.37Z"/><path class="cls-1" d="M183.66,290.73c.85-.12,1.41-.2,2.05-.32.04-1.29.04-2.49.04-4.19v-8.89c0-1.73-.04-3.38-.08-5.15-.81-.28-1.33-.36-2.09-.56-.04,0-.08-.68.04-.68,2.61-.64,3.78-.97,5.83-1.53.04,0,.36.2.36.28-.04,1.01-.04,2.09-.08,3.3v17.46c.68.12,1.33.2,2.17.28.12,0,0,.8-.04.8h-8.29c-.08,0,0-.8.08-.8ZM185.35,264.01c0-1.29,1.05-2.33,2.33-2.33s2.37,1.05,2.37,2.33-1.05,2.33-2.37,2.33-2.33-1.05-2.33-2.33Z"/><path class="cls-1" d="M193.8,290.73c.85-.12,1.41-.2,2.05-.32.04-1.29.08-2.49.08-4.19v-8.89c0-1.73-.08-3.38-.12-5.15-.76-.28-1.29-.36-2.09-.56-.04,0-.04-.68.04-.68,2.74-.68,3.34-.88,5.71-1.53.08,0,.36.2.36.28l-.04,3.18h.12c2.01-1.97,5.43-3.3,8.25-3.3,3.58,0,5.67,1.57,5.67,6.04v14.85c.68.12,1.29.2,2.09.28.12,0,0,.8-.08.8h-8.25c-.08,0,0-.8.08-.8.85-.12,1.41-.2,2.05-.32.04-1.37.04-2.49.04-4.19v-9.58c0-3.18-.88-4.71-3.9-4.71-2.25,0-4.59.85-5.92,2.05v16.46c.68.12,1.25.2,2.13.28.08,0,0,.8-.08.8h-8.29c-.08,0,0-.8.08-.8Z"/><path class="cls-1" d="M217.25,281.03c0-6.84,3.82-11.51,9.78-11.51,5.63,0,8.77,3.78,8.69,10.14h-14.4c.08,6.36,3.1,9.62,7.04,9.62,4.22,0,5.91-1.49,7.2-2.78.2-.16.24.48.12.76-.97,2.01-3.94,4.79-8.33,4.79-6.28,0-10.1-4.35-10.1-11.02ZM221.32,278.54l10.02-.4c0-4.99-1.49-7.48-4.43-7.48s-5.35,2.41-5.59,7.89Z"/><path class="cls-1" d="M237.7,290.69c-.2-.12-.04-3.5.08-3.5h.24c1.77,2.05,3.42,3.54,6.28,3.54,2.65,0,4.26-.81,4.26-3.5,0-2.49-2.05-3.38-5.67-5.07-2.41-1.17-4.95-2.78-4.95-6.4,0-4.22,3.62-6.24,7.2-6.24,2.49,0,4.47.44,5.67,1.17.12.12.08,3.26,0,3.26h-.2c-1.25-1.97-2.98-3.06-5.55-3.06-2.21,0-3.9,1.17-3.9,3.26,0,2.54,1.53,3.14,4.39,4.55,3.18,1.57,6.48,3.14,6.48,6.68,0,4.79-3.94,6.68-7.73,6.68-2.82,0-4.99-.52-6.6-1.37Z"/><path class="cls-1" d="M253.87,290.69c-.2-.12-.04-3.5.08-3.5h.24c1.77,2.05,3.42,3.54,6.28,3.54,2.65,0,4.26-.81,4.26-3.5,0-2.49-2.05-3.38-5.67-5.07-2.41-1.17-4.95-2.78-4.95-6.4,0-4.22,3.62-6.24,7.2-6.24,2.49,0,4.47.44,5.67,1.17.12.12.08,3.26,0,3.26h-.2c-1.25-1.97-2.98-3.06-5.55-3.06-2.21,0-3.9,1.17-3.9,3.26,0,2.54,1.53,3.14,4.39,4.55,3.18,1.57,6.48,3.14,6.48,6.68,0,4.79-3.94,6.68-7.73,6.68-2.82,0-4.99-.52-6.6-1.37Z"/><path class="cls-1" d="M277.93,290.33c-.32-.16-.28-4.39,0-4.39h.2c2.09,2.53,4.79,4.51,7.97,4.55,3.9.04,6.68-1.33,6.68-5.59,0-3.74-3.46-5.39-7.04-7.2-3.74-2.09-7.6-4.22-7.6-9.05s3.74-7.81,9.09-7.81c3.3,0,5.07.4,6.88,1.17.36.16.28,4.1.08,4.1h-.2c-1.33-1.89-3.22-3.78-6.8-3.78-2.37,0-5.75.97-5.75,4.43s3.3,5.03,7.2,7.16c3.98,2.17,7.85,4.31,7.85,9.29,0,5.59-4.1,8.81-10.34,8.81-2.78,0-6.36-.68-8.21-1.69Z"/><path class="cls-1" d="M316.31,286.75c.12-.08.28.48.16.73-.97,2.21-3.98,4.59-8.05,4.59-5.71,0-9.86-4.35-9.86-10.7,0-7.6,5.71-11.79,11.11-11.79,2.66,0,4.18.32,5.83.93.2.08.24,3.14,0,3.14h-.2c-1.85-1.45-3.3-2.7-5.67-2.7-3.94,0-7.12,3.1-7.12,9.01s2.98,9.46,7.24,9.46c2.9.04,5.15-1.29,6.56-2.66Z"/><path class="cls-1" d="M317.36,290.73c.85-.12,1.41-.2,2.05-.32.04-1.29.04-2.49.04-4.19v-18.07c0-1.73-.04-3.42-.08-5.19-.81-.24-1.29-.36-2.09-.56-.04,0-.08-.64.04-.64,2.74-.68,3.42-.93,5.75-1.53.08,0,.36.2.36.28v12.35h.12c2.01-1.97,5.35-3.3,8.13-3.3,3.62,0,5.71,1.65,5.71,6.04v14.85c.64.12,1.25.2,2.09.28.08,0,0,.8-.08.8h-8.25c-.12,0-.04-.8.08-.8.85-.12,1.37-.2,2.05-.32.04-1.37.04-2.49.04-4.19v-9.58c0-3.18-.88-4.71-3.9-4.71-2.29,0-4.63.85-5.92,2.05v16.46c.68.12,1.25.2,2.09.28.12,0,0,.8-.04.8h-8.29c-.08,0,0-.8.08-.8Z"/><path class="cls-1" d="M340.66,280.95c0-7.2,4.67-11.43,10.42-11.43s10.58,3.94,10.58,11.14-4.63,11.39-10.38,11.39-10.62-3.94-10.62-11.1ZM357.4,280.91c0-7.73-2.53-10.18-6.32-10.18-3.58,0-6.12,2.61-6.12,9.98,0,7.73,2.54,10.22,6.32,10.22,3.58,0,6.12-2.7,6.12-10.02Z"/><path class="cls-1" d="M363.64,280.95c0-7.2,4.67-11.43,10.42-11.43s10.58,3.94,10.58,11.14-4.63,11.39-10.38,11.39-10.62-3.94-10.62-11.1ZM380.38,280.91c0-7.73-2.53-10.18-6.32-10.18-3.58,0-6.12,2.61-6.12,9.98,0,7.73,2.54,10.22,6.32,10.22,3.58,0,6.12-2.7,6.12-10.02Z"/><path class="cls-1" d="M386.06,290.73c.85-.12,1.41-.2,2.05-.32.04-1.29.04-2.49.04-4.19v-17.9c0-1.73-.04-3.38-.08-5.15-.81-.28-1.33-.4-2.09-.56-.04,0-.08-.68.04-.72,2.61-.64,3.82-.93,5.87-1.49.04-.04.36.16.36.28,0,.97-.12,2.42-.12,3.82v25.95c.68.12,1.37.2,2.21.28.08,0,0,.8-.08.8h-8.29c-.08,0,0-.8.08-.8Z"/><path class="cls-1" d="M199.77,77.25c.54.54,1.68.96,3.02,1.05,1.91.13,3.51-.46,3.57-1.32.06-.83-1.34-1.6-3.16-1.77-.09-.02-.19-.04-.3-.03-.04,0-.09,0-.14,0-.41-.01-.79,0-1.15.05-.17,0-.33.01-.5.02-1.01.04-2.07.08-3.13.14v-2.43l.71-1.68s-.83-1.17-1.63-1.17-1.75,1.17-1.75,1.17l.71,1.68v2.58c-3.95.4-7.37,1.39-7.39,4.31-.02,2.66,3.28,3.3,7.39,3.39v2.5c-3.22.19-5.06,1.42-5.11,3.47-.05,2.05,2.61,2.69,5.11,2.86v3.32c-1.19.23-2.06.33-2.09.33-.54.05-.93.52-.88,1.05.05.5.66.65,1.16.65.2,0,.87-.06,1.81-.23v3.45l1.04.87.92-.87v-3.89c.46-.13.93-.27,1.42-.44,1.58-.55,2.6-1.87,2.47-3.25-.12-1.26-1.53-2.39-3.89-2.76v-2.69c3.82-.25,6.1-1.49,6.1-3.62s-3.84-2.58-6.1-2.64v-3.97c.61-.05,1.22-.08,1.79-.11ZM192.94,88.93c.02-.82,1.76-1.14,3.09-1.24v2.43c-2.65-.22-3.1-.65-3.09-1.19ZM200.01,93.31c.1.54-.6,1.17-1.3,1.4-.24.08-.49.15-.73.22v-2.73c1.27.19,1.94.68,2.02,1.12ZM201.62,83.69c.34.28.6.8-.19,1.25-.79.44-2.09.69-3.44.76v-2.45c1.34-.01,3.11,0,3.63.45ZM196.03,81.32c-4.6-.09-5.51-1.1-5.49-1.74.04-1.1,2.6-1.7,5.49-2.03v3.77Z"/><polygon class="cls-1" points="164.97 13.3 165.01 13.3 167.67 19.34 168.98 19.34 171.64 13.3 171.68 13.3 171.68 19.34 173.52 19.34 173.52 9.96 171.27 9.96 168.34 16.55 168.31 16.55 165.38 9.96 163.13 9.96 163.13 19.34 164.97 19.34 164.97 13.3"/><polygon class="cls-1" points="183.71 17.68 179.19 17.68 179.19 15.45 183.34 15.45 183.34 13.71 179.19 13.71 179.19 11.61 183.58 11.61 183.58 9.96 177.38 9.96 177.38 19.34 183.71 19.34 183.71 17.68"/><polygon class="cls-1" points="193.14 17.68 188.96 17.68 188.96 9.96 187.15 9.96 187.15 19.34 193.14 19.34 193.14 17.68"/><rect class="cls-1" x="196.12" y="9.96" width="1.81" height="9.38"/><path class="cls-1" d="M203.71,18.92c.73.42,1.54.63,2.42.63s1.69-.21,2.42-.63c.73-.42,1.31-1,1.73-1.74.43-.74.64-1.58.64-2.51s-.21-1.77-.64-2.51c-.43-.75-1-1.33-1.73-1.75-.73-.42-1.54-.63-2.42-.63s-1.69.21-2.42.63c-.73.42-1.31,1-1.74,1.74-.43.75-.65,1.59-.65,2.53s.21,1.78.65,2.52c.43.74,1.01,1.32,1.74,1.74ZM203.61,13.02c.26-.49.61-.87,1.05-1.15.44-.28.94-.42,1.48-.42s1.03.14,1.47.43c.44.28.78.67,1.03,1.16.25.49.38,1.03.38,1.62s-.13,1.16-.38,1.64c-.26.48-.6.87-1.04,1.14-.44.28-.92.41-1.46.41s-1.03-.14-1.47-.41c-.45-.27-.8-.65-1.06-1.14-.26-.49-.39-1.04-.39-1.65s.13-1.16.39-1.65Z"/><path class="cls-1" d="M215.57,15.99h1.1l2.24,3.36h2.04s-1.97-2.9-2.37-3.49h0c.4-.12.75-.28,1.07-.51.32-.23.57-.54.77-.93.2-.39.3-.87.3-1.43,0-.83-.21-1.48-.63-1.92-.42-.45-.87-.74-1.35-.88-.48-.14-.92-.21-1.32-.21h-3.66v9.38h1.81v-3.36ZM215.57,11.58h1.55c.43,0,.82.11,1.17.34.35.22.53.59.53,1.09,0,.35-.09.63-.27.84-.18.2-.4.35-.65.43s-.52.12-.8.12h-1.52v-2.82Z"/><path class="cls-1" d="M225.95,16.86h3.57l.94,2.42h1.91l-3.55-9.25h-2.09l-3.55,9.25h1.85l.92-2.42ZM227.74,12.16h.02l1.13,3h-2.3l1.15-3Z"/><path class="cls-1" d="M239.95,65.53V0h-85.8v65.53c.01.86-.43,8.88,6.26,16.8,4.83,5.72,34.78,28.38,36.04,29.34l.6.45.6-.45c1.27-.97,31.15-23.68,36.04-29.34,6.61-7.64,6.26-15.97,6.26-16.8ZM238,1.93v25.04h-81.89V1.93h81.89ZM161.89,81.06c-6.25-7.48-5.7-14.86-5.79-15.38V28.9h39.98v30.14l-31.33,24.8c-1.28-1.15-2.29-2.08-2.86-2.78ZM197.06,109.69c-3.54-2.7-21.85-16.75-30.82-24.55l30.82-24.41,30.82,24.41c-8.98,7.79-27.29,21.84-30.82,24.55ZM232.22,81.06c-.61.66-1.59,1.63-2.86,2.78l-31.32-24.8v-30.14h39.97v36.68s.25,8.94-5.78,15.48Z"/><path class="cls-1" d="M174.99,57.95v.19h2.14v-.19c.15-.36.71-1.47,2.02-1.47h8.62v-17.87h-8.8c-.94,0-2.09.38-2.91,1.05-.82-.67-1.97-1.05-2.91-1.05h-8.8v17.87h8.62c1.31,0,1.87,1.11,2.02,1.47ZM178.97,40.54h6.66v14.01h-6.48c-.79,0-1.46.19-2.02.49v-13.33c0-.67,1.21-1.17,1.84-1.17ZM166.49,40.54h6.66c.63,0,1.84.49,1.84,1.17v13.33c-.55-.3-1.22-.49-2.02-.49h-6.48v-14.01Z"/><path class="cls-1" d="M225.23,37.84c-1.35,0-2.29.95-2.29,2.32,0,.36,0,.9.03,1.27h-.56v-1.31h-1.65v1.31h-1.08v-1.31h-1.65v1.31h-1.08v-1.31h-1.65v1.31h-.6c.02-.37.03-.91.03-1.27,0-1.36-.94-2.32-2.29-2.32s-2.29.95-2.29,2.32h1.65c0-.41.28-.73.63-.73s.63.33.63.73c0,2.67-.67,4.46-1.33,6.2-.59,1.58-1.15,3.07-1.15,5,0,1.06.24,2.1.72,3.07.44.91,1.07,1.72,1.86,2.43.12.11.25.22.39.32h-1.72l.02,1.72h13.99l-.02-1.72h-1.68c.13-.11.26-.22.39-.32.79-.7,1.42-1.52,1.86-2.43.48-.98.72-2.01.72-3.07,0-1.92-.55-3.36-1.14-4.89-.66-1.72-1.34-3.51-1.34-6.31,0-.41.28-.73.63-.73s.63.33.63.73h1.65c0-1.36-.94-2.32-2.29-2.32ZM215.28,56.21c-1.89-1.11-3.05-2.95-3.05-4.85,0-1.56.47-2.82,1.02-4.28.43-1.15.92-2.45,1.21-4.03h.82v13.17ZM216.93,56.91v-13.87h1.08v14.09c-.36-.04-.73-.12-1.08-.22ZM219.67,57.13v-14.09h1.08v13.86c-.35.1-.72.18-1.08.22ZM223.18,43.04c.29,1.67.79,2.99,1.24,4.16.54,1.41,1,2.62,1,4.16,0,1.88-1.15,3.72-3.02,4.83v-13.14h.77Z"/><path class="cls-1" d="M217.06,170.04c-2.14,2.14-4.95,4.61-11.96,4.61-6.55,0-11.56-5.41-11.69-15.97h23.92c.13-10.56-5.08-16.84-14.43-16.84-9.89,0-16.24,7.75-16.24,19.11s6.35,18.31,16.77,18.31c7.28,0,12.23-4.61,13.83-7.95.2-.47.13-1.54-.2-1.27ZM202.69,143.71c4.88,0,7.35,4.14,7.35,12.43l-16.64.67c.4-9.09,4.48-13.1,9.29-13.1Z"/><path class="cls-1" d="M241.65,141.84c-4.01,0-7.62,3.61-9.36,6.95h-.33l.07-6.68c-.01-.47-.99-.36-1.05-.36l-9.13,7.65c-.31.25-.04,1.19.03,1.19,1.27.27,2.21.47,3.55.94v18.05c0,2.69.06,5.07,0,7.15h-3.62v1.67h14.67v-.92c.03-.14.03-.27,0-.33v-.43h-4.24v-25.79c2.01-2.81,5.08-3.68,8.02-3.68,1.94,0,3.34.53,4.41.94h.2c.07,0,.27-5.35.07-5.55-.74-.6-1.67-.8-3.27-.8Z"/><path class="cls-1" d="M261.43,157.08c-4.74-2.34-7.28-3.34-7.28-7.55,0-3.47,2.81-5.41,6.48-5.41,4.28,0,7.15,1.8,9.22,5.08h.33c.13,0,.2-5.21,0-5.41-2.01-1.2-5.28-1.94-9.42-1.94-5.95,0-11.96,3.34-11.96,10.36,0,6.01,4.21,8.69,8.22,10.63,6.01,2.81,9.42,4.28,9.42,8.42,0,4.48-2.67,5.81-7.08,5.81-4.74,0-7.48-2.47-10.42-5.88h-.4c-.2,0-.47,5.61-.13,5.81,2.67,1.4,6.28,2.27,10.96,2.27,6.28,0,12.83-3.14,12.83-11.09,0-5.88-5.48-8.49-10.76-11.09Z"/><path class="cls-1" d="M129.37,151.93c0-7.42-3.47-10.02-9.42-10.02-4.68,0-10.36,2.21-13.7,5.48h-.2v-5.28c0-.13-.4-.47-.53-.47-3.94,1.07-4.95,1.4-9.49,2.54-.13,0-.13,1.14-.07,1.14,1.34.33,2.28.47,3.55.94.07,2.94,0,5.68,0,8.55v14.77c0,2.66.06,5.08,0,7.15h-3.61v1.67h14v-.84c0-.15.01-.28,0-.37v-.47h-3.59v-27.46c2.21-2,6.08-3.41,9.82-3.41,5.01,0,6.48,2.54,6.48,7.82v15.9c0,2.68,0,4.97-.06,7.15h-3.56v1.67h13.93v-1.67h-3.56v-24.79Z"/><path class="cls-1" d="M147.17,147.59c.07-2-.07-3.81,0-5.48,0-.13-.4-.47-.47-.47-3.41.94-5.35,1.47-9.69,2.54-.2,0-.13,1.14-.07,1.14,1.27.33,2.27.47,3.61.94.07,2.94,0,5.68,0,8.55v14.77c0,2.62,0,5.09-.05,7.15h-3.61v1.37s0,.08,0,.11v.2h13.99v-1.67h-3.71v-29.14Z"/><path class="cls-1" d="M143.76,136.56c2.21,0,3.94-1.74,3.94-3.88s-1.74-3.88-3.94-3.88-3.88,1.74-3.88,3.88,1.74,3.88,3.88,3.88Z"/><path class="cls-1" d="M282.66,136.56c2.21,0,3.94-1.74,3.94-3.88s-1.74-3.88-3.94-3.88-3.88,1.74-3.88,3.88,1.74,3.88,3.88,3.88Z"/><path class="cls-1" d="M286.07,147.59c.07-2-.07-3.81,0-5.48,0-.13-.4-.47-.47-.47-3.41.94-5.35,1.47-9.69,2.54-.2,0-.13,1.14-.07,1.14,1.27.33,2.22.47,3.56.94.07,2.94,0,5.68,0,8.55v14.77c0,2.58.05,5.1,0,7.15h-3.62v1.67h13.99v-1.67h-3.7v-29.14Z"/><path class="cls-1" d="M314.21,173.27c-1.2.67-3.41,1.87-5.95,1.87-3.88,0-5.08-2.34-5.08-5.88v-24.12h10.29c.33,0,.74-2.94.4-2.94h-10.69c.07-2.21-.13-4.88,0-7.02,0-.27-.8-.53-1-.27-1.54,1.47-7.42,6.42-11.09,9.15-.2.2-.13,1.07,0,1.07h5.41v24.52c0,5.61,2.14,9.16,8.75,9.16,4.41,0,7.82-2,9.15-4.21.13-.27-.07-1.4-.2-1.34Z"/><path class="cls-1" d="M81.54,128.27h-.2v.73c-.01.18-.02.37,0,.53v.42h.84c.06,0,.12,0,.18,0h4v29.74c0,13.03-7.15,16.64-14.3,16.64-8.49,0-15.32-3.94-15.32-15.24v-20.18c0-2.87-.13-8.35,0-10.96h4.88v-1.67h-17.02v1.67h4.79v30.74c0,13.3,9.57,18.38,20.8,18.38,10.63,0,18.78-4.61,18.78-19.51v-17.98c.06-4.02-.13-8.32,0-11.63h5.21v-1.67h-12.63Z"/><path class="cls-1" d="M186.65,144.24v-1.67h-9.57v1.67h4.04c-1.03,3.37-2.94,8.74-4.95,14.64l-3.88,11.03h-.13l-5.95-15.97c-1.1-3.05-2.4-6.96-3.2-9.7h4.26v-1.67h-14.44v1.67h2.46l13.47,34.55h2.14l8.42-22.85c1.55-4.07,3.36-9.08,4.32-11.7h3.01Z"/><path class="cls-1" d="M349.52,142.57h-9.13v1.67h3.73c-.78,2.83-1.63,5.64-3.5,11.57-1.74,5.08-3.27,9.76-5.01,14.9h-.13c-2.07-6.15-4.01-12.16-6.01-18.11-1.03-2.9-1.96-5.76-2.8-8.36h4.14v-1.67h-14.33v1.67h2.62l12.7,35.29c-.67,1.94-1.4,3.74-2.74,5.41-1.2,1.47-2.34,2.67-5.28,2.67-1.87,0-3.27-.87-4.61-1.87h-.2c-.33,0-.47,3.68,0,3.88.67.33,2.2.67,3.94.67,3.27,0,5.88-1.47,7.95-4.08,1.54-2,3.07-5.01,4.81-10.16l7.48-21.18c1.65-4.58,2.78-8.06,3.75-10.63h2.61v-1.67Z"/><path class="cls-1" d="M13.37,222.92c0-11.96,7.75-18.98,17.31-18.98s17.57,6.55,17.57,18.51-7.68,18.91-17.24,18.91-17.64-6.55-17.64-18.44ZM41.17,222.86c0-12.83-4.21-16.91-10.49-16.91-5.95,0-10.16,4.34-10.16,16.57,0,12.83,4.21,16.97,10.49,16.97,5.95,0,10.16-4.48,10.16-16.64Z"/><path class="cls-1" d="M126.67,222.89c0-12,7.77-19.03,17.36-19.03s17.63,6.57,17.63,18.57-7.71,18.97-17.29,18.97-17.69-6.57-17.69-18.5ZM154.56,222.82c0-12.87-4.22-16.96-10.52-16.96-5.97,0-10.19,4.36-10.19,16.62,0,12.87,4.22,17.02,10.52,17.02,5.97,0,10.19-4.49,10.19-16.69Z"/><path class="cls-1" d="M195.43,232.54c.2-.13.47.8.27,1.21-1.61,3.69-6.64,7.64-13.41,7.64-9.52,0-16.42-7.24-16.42-17.83,0-12.67,9.52-19.64,18.5-19.64,4.42,0,6.97.54,9.72,1.54.34.13.4,5.23,0,5.23h-.34c-3.08-2.41-5.5-4.49-9.45-4.49-6.57,0-11.86,5.16-11.86,15.01s4.96,15.75,12.06,15.75c4.83.07,8.58-2.14,10.92-4.42Z"/><path class="cls-1" d="M236.24,223.02c0-11.39,6.37-19.17,16.29-19.17,9.38,0,14.61,6.3,14.48,16.89h-24c.13,10.59,5.16,16.02,11.73,16.02,7.04,0,9.85-2.48,12-4.62.34-.27.4.8.2,1.27-1.61,3.35-6.57,7.98-13.87,7.98-10.46,0-16.82-7.24-16.82-18.36ZM243.01,218.86l16.69-.67c0-8.31-2.48-12.47-7.37-12.47s-8.91,4.02-9.32,13.14Z"/><path class="cls-1" d="M271.89,239.11c-.34-.2-.07-5.83.13-5.83h.4c2.95,3.42,5.7,5.9,10.46,5.9,4.42,0,7.1-1.34,7.1-5.83,0-4.16-3.42-5.63-9.45-8.45-4.02-1.94-8.24-4.62-8.24-10.66,0-7.04,6.03-10.39,12-10.39,4.16,0,7.44.74,9.45,1.94.2.2.13,5.43,0,5.43h-.34c-2.08-3.28-4.96-5.09-9.25-5.09-3.69,0-6.5,1.94-6.5,5.43,0,4.22,2.55,5.23,7.31,7.57,5.3,2.61,10.79,5.23,10.79,11.13,0,7.98-6.57,11.13-12.87,11.13-4.69,0-8.31-.87-10.99-2.28Z"/><path class="cls-1" d="M303.59,232.2v-24.6h-5.43v-1.07l11.13-9.18c.2-.27,1.01,0,1.01.27-.13,2.14.07,4.83,0,7.04h10.72c.34,0-.4,2.95-.4,2.95h-10.32v24.2c0,3.55,1.21,5.9,5.09,5.9,2.55,0,4.76-1.21,5.97-1.88.13-.07.34,1.07.2,1.34-1.34,2.21-4.76,4.22-9.18,4.22-6.64,0-8.78-3.55-8.78-9.18Z"/><path class="cls-1" d="M323.45,223.02c0-11.39,6.37-19.17,16.29-19.17,9.38,0,14.61,6.3,14.48,16.89h-24c.13,10.59,5.16,16.02,11.73,16.02,7.04,0,9.85-2.48,12-4.62.34-.27.4.8.2,1.27-1.61,3.35-6.57,7.98-13.87,7.98-10.46,0-16.82-7.24-16.82-18.36ZM330.22,218.86l16.69-.67c0-8.31-2.48-12.47-7.37-12.47s-8.91,4.02-9.32,13.14Z"/><path class="cls-1" d="M230.72,238.84v-24.87c0-7.31-3.49-10.05-9.52-10.05-4.62,0-10.19,2.21-13.54,5.5h-.2v-20.58c0-.13-.48-.47-.61-.47l-9.62,7.95-.03,1.09c1.34.34,2.14.54,3.49.94.07,2.95,0,5.76,0,8.65v24.67c0,2.82.07,5.03,0,7.18h-3.55v1.67h14.07v-1.67h-3.61v-27.55c2.14-2.01,6.03-3.42,9.85-3.42,5.03,0,6.5,2.55,6.5,7.84v15.95c0,2.78,0,4.93-.06,7.18h-3.67v1.67h14.07v-1.67h-3.56Z"/><path class="cls-1" d="M127.14,238.84h-2.78s-.92-1.16-1.45-1.88c-5.09-7.51-8.85-13.61-12.47-20.71v-.2c6.7-2.68,9.65-7.31,9.65-13,0-7.71-5.63-12.8-21.11-12.84h-13.94v1.67h3.62v35.84c0,2.8.15,8.42.03,11.13h-4v1.67h16.03v-1.67h-4.75v-21.32c1.81.27,4.76.34,7.24.4,3.29,6.09,7.62,13.74,12.02,20.92h-2.81v1.67h15.13v-1.67h-.41ZM95.97,215.92v-12.87c0-2.88-.2-8.56,0-11.17,12.6,0,16.62,3.13,16.69,12.78,0,9.72-8.91,11.93-16.69,11.26Z"/><path class="cls-1" d="M377.38,203.96c-4.01,0-7.62,3.61-9.36,6.95h-.33l.07-6.68c-.01-.47-.99-.36-1.05-.36l-9.13,7.65c-.31.25-.04,1.19.03,1.19,1.27.27,2.21.47,3.55.94v18.05c0,2.69.06,5.07,0,7.15h-3.62v1.67h14.67v-1.67h-4.24v-25.79c2.01-2.81,5.08-3.68,8.02-3.68,1.94,0,3.34.53,4.41.94h.2c.07,0,.27-5.35.07-5.55-.74-.6-1.67-.8-3.27-.8Z"/><path class="cls-1" d="M55.19,207.7h-4.74c-.07,0-.07-1.6,0-1.6l4.74-1.47v-1.8c0-9.62,7.28-14.17,13.77-14.17,3.27,0,4.16.27,5.36.74.33.07.27,4.68,0,4.68h-.27c-1.67-1.67-2.89-3.07-5.56-3.07-4.41,0-6.48,2.74-6.48,7.62v6.15h9.02c.27,0-.27,2.94-.47,2.94h-8.55v31.01h4.21v1.8h-14.63v-1.77c-.09,0,3.61,0,3.61,0v-31.04Z"/></svg>